<svg xmlns="http://www.w3.org/2000/svg" viewBox="0 0 32 32" fill="none">
  <rect width="32" height="32" rx="8" fill="#1B5E20"/>
  <g>
    <circle cx="20.1" cy="17.9" r="1.2" fill="#4CAF50"/>
    <circle cx="18.3" cy="19.8" r="1.2" fill="#4CAF50"/>
    <circle cx="15.8" cy="20.5" r="1.2" fill="#4CAF50"/>
    <circle cx="13.3" cy="19.6" r="1.2" fill="#4CAF50"/>
    <circle cx="11.8" cy="17.5" r="1.2" fill="#4CAF50"/>
    <circle cx="11.6" cy="14.9" r="1.2" fill="#4CAF50"/>
    <circle cx="13.0" cy="12.7" r="1.2" fill="#4CAF50"/>
    <circle cx="15.3" cy="11.6" r="1.2" fill="#4CAF50"/>
    <circle cx="17.9" cy="11.9" r="1.2" fill="#4CAF50"/>
    <circle cx="21.4" cy="18.5" r="1.1" fill="#5bb44a"/>
    <circle cx="19.7" cy="20.7" r="1.1" fill="#5bb44a"/>
    <circle cx="17.1" cy="21.9" r="1.1" fill="#5bb44a"/>
    <circle cx="14.3" cy="21.8" r="1.1" fill="#5bb44a"/>
    <circle cx="11.9" cy="20.4" r="1.1" fill="#5bb44a"/>
    <circle cx="10.4" cy="18.1" r="1.1" fill="#5bb44a"/>
    <circle cx="10.0" cy="15.3" r="1.1" fill="#5bb44a"/>
    <circle cx="11.0" cy="12.6" r="1.1" fill="#5bb44a"/>
    <circle cx="13.1" cy="10.8" r="1.1" fill="#5bb44a"/>
    <circle cx="15.8" cy="10.0" r="1.1" fill="#5bb44a"/>
    <circle cx="18.5" cy="10.6" r="1.1" fill="#5bb44a"/>
    <circle cx="22.8" cy="19.2" r="0.9" fill="#66BB6A"/>
    <circle cx="21.2" cy="21.4" r="0.9" fill="#66BB6A"/>
    <circle cx="19.0" cy="22.9" r="0.9" fill="#66BB6A"/>
    <circle cx="16.4" cy="23.5" r="0.9" fill="#66BB6A"/>
    <circle cx="13.7" cy="23.1" r="0.9" fill="#66BB6A"/>
    <circle cx="11.3" cy="21.8" r="0.9" fill="#66BB6A"/>
    <circle cx="9.5" cy="19.8" r="0.9" fill="#66BB6A"/>
    <circle cx="8.6" cy="17.3" r="0.9" fill="#66BB6A"/>
    <circle cx="8.6" cy="14.5" r="0.9" fill="#66BB6A"/>
    <circle cx="9.6" cy="12.0" r="0.9" fill="#66BB6A"/>
    <circle cx="11.5" cy="10.0" r="0.9" fill="#66BB6A"/>
    <circle cx="13.9" cy="8.8" r="0.9" fill="#66BB6A"/>
    <circle cx="16.6" cy="8.5" r="0.9" fill="#66BB6A"/>
    <circle cx="19.2" cy="9.2" r="0.9" fill="#66BB6A"/>
    <circle cx="24.2" cy="19.8" r="0.8" fill="#7bc043"/>
    <circle cx="22.7" cy="22.0" r="0.8" fill="#7bc043"/>
    <circle cx="20.7" cy="23.7" r="0.8" fill="#7bc043"/>
    <circle cx="18.2" cy="24.7" r="0.8" fill="#7bc043"/>
    <circle cx="15.6" cy="25.0" r="0.8" fill="#7bc043"/>
    <circle cx="13.0" cy="24.5" r="0.8" fill="#7bc043"/>
    <circle cx="10.7" cy="23.3" r="0.8" fill="#7bc043"/>
    <circle cx="8.8" cy="21.4" r="0.8" fill="#7bc043"/>
    <circle cx="7.5" cy="19.1" r="0.8" fill="#7bc043"/>
    <circle cx="7.0" cy="16.5" r="0.8" fill="#7bc043"/>
    <circle cx="7.3" cy="13.9" r="0.8" fill="#7bc043"/>
    <circle cx="8.3" cy="11.4" r="0.8" fill="#7bc043"/>
    <circle cx="9.9" cy="9.4" r="0.8" fill="#7bc043"/>
    <circle cx="12.1" cy="7.9" r="0.8" fill="#7bc043"/>
    <circle cx="14.6" cy="7.1" r="0.8" fill="#7bc043"/>
    <circle cx="17.3" cy="7.1" r="0.8" fill="#7bc043"/>
    <circle cx="19.8" cy="7.8" r="0.8" fill="#7bc043"/>
    <circle cx="25.5" cy="20.4" r="0.6" fill="#8BC34A"/>
    <circle cx="24.1" cy="22.6" r="0.6" fill="#8BC34A"/>
    <circle cx="22.3" cy="24.4" r="0.6" fill="#8BC34A"/>
    <circle cx="20.0" cy="25.7" r="0.6" fill="#8BC34A"/>
    <circle cx="17.5" cy="26.4" r="0.6" fill="#8BC34A"/>
    <circle cx="14.9" cy="26.4" r="0.6" fill="#8BC34A"/>
    <circle cx="12.4" cy="25.9" r="0.6" fill="#8BC34A"/>
    <circle cx="10.1" cy="24.7" r="0.6" fill="#8BC34A"/>
    <circle cx="8.1" cy="22.9" r="0.6" fill="#8BC34A"/>
    <circle cx="6.7" cy="20.8" r="0.6" fill="#8BC34A"/>
    <circle cx="5.8" cy="18.3" r="0.6" fill="#8BC34A"/>
    <circle cx="5.5" cy="15.8" r="0.6" fill="#8BC34A"/>
    <circle cx="5.9" cy="13.2" r="0.6" fill="#8BC34A"/>
    <circle cx="6.9" cy="10.8" r="0.6" fill="#8BC34A"/>
    <circle cx="8.4" cy="8.7" r="0.6" fill="#8BC34A"/>
    <circle cx="10.5" cy="7.1" r="0.6" fill="#8BC34A"/>
    <circle cx="12.8" cy="6.0" r="0.6" fill="#8BC34A"/>
    <circle cx="15.4" cy="5.5" r="0.6" fill="#8BC34A"/>
    <circle cx="18.0" cy="5.7" r="0.6" fill="#8BC34A"/>
    <circle cx="20.4" cy="6.5" r="0.6" fill="#8BC34A"/>
    <circle cx="26.9" cy="21.1" r="0.5" fill="#9CCC65"/>
    <circle cx="25.5" cy="23.3" r="0.5" fill="#9CCC65"/>
    <circle cx="23.8" cy="25.1" r="0.5" fill="#9CCC65"/>
    <circle cx="21.7" cy="26.6" r="0.5" fill="#9CCC65"/>
    <circle cx="19.3" cy="27.5" r="0.5" fill="#9CCC65"/>
    <circle cx="16.8" cy="28.0" r="0.5" fill="#9CCC65"/>
    <circle cx="14.2" cy="27.9" r="0.5" fill="#9CCC65"/>
    <circle cx="11.7" cy="27.2" r="0.5" fill="#9CCC65"/>
    <circle cx="9.4" cy="26.0" r="0.5" fill="#9CCC65"/>
    <circle cx="7.4" cy="24.4" r="0.5" fill="#9CCC65"/>
    <circle cx="5.9" cy="22.4" r="0.5" fill="#9CCC65"/>
    <circle cx="4.7" cy="20.1" r="0.5" fill="#9CCC65"/>
    <circle cx="4.1" cy="17.6" r="0.5" fill="#9CCC65"/>
    <circle cx="4.0" cy="15.0" r="0.5" fill="#9CCC65"/>
    <circle cx="4.5" cy="12.5" r="0.5" fill="#9CCC65"/>
    <circle cx="5.5" cy="10.2" r="0.5" fill="#9CCC65"/>
    <circle cx="7.0" cy="8.1" r="0.5" fill="#9CCC65"/>
    <circle cx="8.9" cy="6.3" r="0.5" fill="#9CCC65"/>
    <circle cx="11.1" cy="5.0" r="0.5" fill="#9CCC65"/>
    <circle cx="13.5" cy="4.3" r="0.5" fill="#9CCC65"/>
    <circle cx="16.1" cy="4.0" r="0.5" fill="#9CCC65"/>
    <circle cx="18.6" cy="4.3" r="0.5" fill="#9CCC65"/>
    <circle cx="21.1" cy="5.1" r="0.5" fill="#9CCC65"/>
  </g>
</svg>