<svg xmlns="http://www.w3.org/2000/svg" viewBox="0 0 100 100" fill="none">
  <g>
    <circle cx="63.6" cy="56.3" r="4" fill="#1a5c1e"/>
    <circle cx="57.8" cy="62.8" r="4" fill="#1a5c1e"/>
    <circle cx="49.3" cy="65.0" r="4" fill="#1a5c1e"/>
    <circle cx="41.1" cy="62.1" r="4" fill="#1a5c1e"/>
    <circle cx="35.9" cy="55.1" r="4" fill="#1a5c1e"/>
    <circle cx="35.4" cy="46.4" r="4" fill="#1a5c1e"/>
    <circle cx="39.9" cy="38.9" r="4" fill="#1a5c1e"/>
    <circle cx="47.7" cy="35.2" r="4" fill="#1a5c1e"/>
    <circle cx="56.3" cy="36.4" r="4" fill="#1a5c1e"/>
    <circle cx="68.1" cy="58.5" r="3.5" fill="#237426"/>
    <circle cx="62.3" cy="65.8" r="3.5" fill="#237426"/>
    <circle cx="53.8" cy="69.6" r="3.5" fill="#237426"/>
    <circle cx="44.5" cy="69.2" r="3.5" fill="#237426"/>
    <circle cx="36.4" cy="64.6" r="3.5" fill="#237426"/>
    <circle cx="31.2" cy="56.8" r="3.5" fill="#237426"/>
    <circle cx="30.1" cy="47.6" r="3.5" fill="#237426"/>
    <circle cx="33.4" cy="38.8" r="3.5" fill="#237426"/>
    <circle cx="40.3" cy="32.5" r="3.5" fill="#237426"/>
    <circle cx="49.3" cy="30.0" r="3.5" fill="#237426"/>
    <circle cx="58.5" cy="31.9" r="3.5" fill="#237426"/>
    <circle cx="72.7" cy="60.6" r="3" fill="#2d8a30"/>
    <circle cx="67.4" cy="67.9" r="3" fill="#2d8a30"/>
    <circle cx="60.0" cy="72.9" r="3" fill="#2d8a30"/>
    <circle cx="51.2" cy="75.0" r="3" fill="#2d8a30"/>
    <circle cx="42.2" cy="73.8" r="3" fill="#2d8a30"/>
    <circle cx="34.3" cy="69.5" r="3" fill="#2d8a30"/>
    <circle cx="28.4" cy="62.6" r="3" fill="#2d8a30"/>
    <circle cx="25.4" cy="54.2" r="3" fill="#2d8a30"/>
    <circle cx="25.5" cy="45.2" r="3" fill="#2d8a30"/>
    <circle cx="28.8" cy="36.8" r="3" fill="#2d8a30"/>
    <circle cx="34.8" cy="30.1" r="3" fill="#2d8a30"/>
    <circle cx="42.9" cy="26.0" r="3" fill="#2d8a30"/>
    <circle cx="51.8" cy="25.1" r="3" fill="#2d8a30"/>
    <circle cx="60.6" cy="27.3" r="3" fill="#2d8a30"/>
    <circle cx="77.2" cy="62.7" r="2.5" fill="#43a047"/>
    <circle cx="72.3" cy="70.0" r="2.5" fill="#43a047"/>
    <circle cx="65.6" cy="75.6" r="2.5" fill="#43a047"/>
    <circle cx="57.4" cy="79.1" r="2.5" fill="#43a047"/>
    <circle cx="48.7" cy="80.0" r="2.5" fill="#43a047"/>
    <circle cx="40.0" cy="78.3" r="2.5" fill="#43a047"/>
    <circle cx="32.3" cy="74.2" r="2.5" fill="#43a047"/>
    <circle cx="26.0" cy="68.0" r="2.5" fill="#43a047"/>
    <circle cx="21.8" cy="60.3" r="2.5" fill="#43a047"/>
    <circle cx="20.0" cy="51.6" r="2.5" fill="#43a047"/>
    <circle cx="20.9" cy="42.9" r="2.5" fill="#43a047"/>
    <circle cx="24.2" cy="34.7" r="2.5" fill="#43a047"/>
    <circle cx="29.7" cy="27.9" r="2.5" fill="#43a047"/>
    <circle cx="37.0" cy="23.0" r="2.5" fill="#43a047"/>
    <circle cx="45.4" cy="20.3" r="2.5" fill="#43a047"/>
    <circle cx="54.2" cy="20.3" r="2.5" fill="#43a047"/>
    <circle cx="62.7" cy="22.8" r="2.5" fill="#43a047"/>
    <circle cx="81.7" cy="64.8" r="2.1" fill="#5bb44a"/>
    <circle cx="77.1" cy="72.1" r="2.1" fill="#5bb44a"/>
    <circle cx="70.9" cy="78.1" r="2.1" fill="#5bb44a"/>
    <circle cx="63.3" cy="82.4" r="2.1" fill="#5bb44a"/>
    <circle cx="55.0" cy="84.6" r="2.1" fill="#5bb44a"/>
    <circle cx="46.3" cy="84.8" r="2.1" fill="#5bb44a"/>
    <circle cx="37.9" cy="82.8" r="2.1" fill="#5bb44a"/>
    <circle cx="30.2" cy="78.9" r="2.1" fill="#5bb44a"/>
    <circle cx="23.7" cy="73.1" r="2.1" fill="#5bb44a"/>
    <circle cx="18.8" cy="65.9" r="2.1" fill="#5bb44a"/>
    <circle cx="15.9" cy="57.8" r="2.1" fill="#5bb44a"/>
    <circle cx="15.0" cy="49.2" r="2.1" fill="#5bb44a"/>
    <circle cx="16.3" cy="40.6" r="2.1" fill="#5bb44a"/>
    <circle cx="19.6" cy="32.6" r="2.1" fill="#5bb44a"/>
    <circle cx="24.8" cy="25.7" r="2.1" fill="#5bb44a"/>
    <circle cx="31.5" cy="20.3" r="2.1" fill="#5bb44a"/>
    <circle cx="39.4" cy="16.6" r="2.1" fill="#5bb44a"/>
    <circle cx="47.9" cy="15.1" r="2.1" fill="#5bb44a"/>
    <circle cx="56.6" cy="15.6" r="2.1" fill="#5bb44a"/>
    <circle cx="64.8" cy="18.3" r="2.1" fill="#5bb44a"/>
    <circle cx="86.3" cy="66.9" r="1.7" fill="#7bc043"/>
    <circle cx="81.8" cy="74.2" r="1.7" fill="#7bc043"/>
    <circle cx="76.0" cy="80.4" r="1.7" fill="#7bc043"/>
    <circle cx="68.9" cy="85.3" r="1.7" fill="#7bc043"/>
    <circle cx="61.0" cy="88.5" r="1.7" fill="#7bc043"/>
    <circle cx="52.5" cy="89.9" r="1.7" fill="#7bc043"/>
    <circle cx="44.0" cy="89.5" r="1.7" fill="#7bc043"/>
    <circle cx="35.7" cy="87.4" r="1.7" fill="#7bc043"/>
    <circle cx="28.1" cy="83.5" r="1.7" fill="#7bc043"/>
    <circle cx="21.5" cy="78.1" r="1.7" fill="#7bc043"/>
    <circle cx="16.2" cy="71.4" r="1.7" fill="#7bc043"/>
    <circle cx="12.4" cy="63.7" r="1.7" fill="#7bc043"/>
    <circle cx="10.4" cy="55.4" r="1.7" fill="#7bc043"/>
    <circle cx="10.1" cy="46.8" r="1.7" fill="#7bc043"/>
    <circle cx="11.7" cy="38.4" r="1.7" fill="#7bc043"/>
    <circle cx="15.0" cy="30.6" r="1.7" fill="#7bc043"/>
    <circle cx="20.0" cy="23.6" r="1.7" fill="#7bc043"/>
    <circle cx="26.3" cy="17.8" r="1.7" fill="#7bc043"/>
    <circle cx="33.7" cy="13.5" r="1.7" fill="#7bc043"/>
    <circle cx="41.8" cy="10.8" r="1.7" fill="#7bc043"/>
    <circle cx="50.3" cy="10.0" r="1.7" fill="#7bc043"/>
    <circle cx="58.8" cy="11.0" r="1.7" fill="#7bc043"/>
    <circle cx="66.9" cy="13.7" r="1.7" fill="#7bc043"/>
  </g>
</svg>